<mxfile host="65bd71144e">
    <diagram id="_LdYzOkvVH0Rsr1QbGcg" name="Page-1">
        <mxGraphModel dx="1139" dy="642" grid="1" gridSize="10" guides="1" tooltips="1" connect="1" arrows="1" fold="1" page="1" pageScale="1" pageWidth="850" pageHeight="1100" math="0" shadow="0">
            <root>
                <mxCell id="0"/>
                <mxCell id="1" parent="0"/>
                <mxCell id="2" value="&lt;h1&gt;PostLite&lt;/h1&gt;&lt;p&gt;A modern blogging platform built as a part of my internship at Nexware Solutions&lt;/p&gt;" style="text;html=1;strokeColor=none;fillColor=none;spacing=5;spacingTop=-20;whiteSpace=wrap;overflow=hidden;rounded=0;" vertex="1" parent="1">
                    <mxGeometry x="30" y="40" width="610" height="80" as="geometry"/>
                </mxCell>
                <mxCell id="4" value="Landing Page" style="swimlane;whiteSpace=wrap;html=1;fontFamily=Courier New;" vertex="1" parent="1">
                    <mxGeometry x="50" y="160" width="200" height="200" as="geometry"/>
                </mxCell>
                <mxCell id="5" value="&lt;ul&gt;&lt;li&gt;Basic info about blog&lt;/li&gt;&lt;li&gt;Featured posts&lt;/li&gt;&lt;li&gt;Recenet posts&lt;/li&gt;&lt;/ul&gt;" style="text;html=1;strokeColor=none;fillColor=none;align=center;verticalAlign=middle;whiteSpace=wrap;rounded=0;fontFamily=Courier New;" vertex="1" parent="4">
                    <mxGeometry x="5" y="85" width="190" height="30" as="geometry"/>
                </mxCell>
                <mxCell id="8" value="Posts Page" style="swimlane;whiteSpace=wrap;html=1;fontFamily=Courier New;" vertex="1" parent="1">
                    <mxGeometry x="330" y="160" width="200" height="200" as="geometry"/>
                </mxCell>
                <mxCell id="9" value="&lt;ul&gt;&lt;li&gt;Search Posts&lt;/li&gt;&lt;/ul&gt;" style="text;html=1;strokeColor=none;fillColor=none;align=center;verticalAlign=middle;whiteSpace=wrap;rounded=0;fontFamily=Courier New;" vertex="1" parent="8">
                    <mxGeometry x="5" y="85" width="190" height="30" as="geometry"/>
                </mxCell>
            </root>
        </mxGraphModel>
    </diagram>
</mxfile>